{"title":"The Secret Agent S01E02","uid":15398142,"size":1031082819,"categoryP":"video","categoryS":"tv_shows","magnet":"?xt=urn:btih:f7ccee71b8d82a8efd1137bee8044c755d915ee0&amp;dn=The+Secret+Agent+S01E02&amp;tr=udp%3A%2F%2Ftracker.leechers-paradise.org%3A6969&amp;tr=udp%3A%2F%2Fzer0day.ch%3A1337&amp;tr=udp%3A%2F%2Fopen.demonii.com%3A1337&amp;tr=udp%3A%2F%2Ftracker.coppersurfer.tk%3A6969&amp;tr=udp%3A%2F%2Fexodus.desync.com%3A6969","seeders":3,"leechers":1,"uploader":"RoaElson","files":2,"time":1469418726,"description":"The Secret Agent S01E02\r\n\r\nMichaelis's suspicions threaten to scupper Verloc's planned bomb attack.\r\n\r\nBack in London, Heat faces the Professor's madness, and Winnie finds herself alone with Ossipon.\r\n\r\nFirst shown: 9pm 24 July 2016\r\nDuration: 57 minutes\r\n\r\nMedia Info:-\r\n\r\nGeneral\r\nFormat : MPEG-4\r\nFormat profile : Base Media\r\nCodec ID : isom (isom/iso2/avc1/mp41)\r\nFile size : 983 MiB\r\nDuration : 57mn 16s\r\nOverall bit rate mode : Variable\r\n\r\nVideo\r\nID : 1\r\nFormat : AVC\r\nFormat/Info : Advanced Video Codec\r\nFormat profile :   \r\nFormat settings, CABAC : Yes\r\nFormat settings, ReFrames : 2 frames\r\nCodec ID : avc1\r\nCodec ID/Info : Advanced Video Coding\r\nDuration : 57mn 16s\r\nBit rate mode : Variable\r\nBit rate : 2 300 Kbps\r\nMaximum bit rate : 3 500 Kbps\r\nWidth : 1 280 pixels\r\nHeight : 720 pixels\r\nDisplay aspect ratio : 16:9\r\nFrame rate mode : Constant\r\nFrame rate : 25.000 fps\r\nColor space : YUV\r\nChroma subsampling : 4:2:0\r\nBit depth : 8 bits\r\nScan type : Progressive\r\nBits/(Pixel*Frame) : 0.100\r\nStream size : 942 MiB (96%)\r\n\r\nAudio\r\nID : 2\r\nFormat : AAC\r\nFormat/Info : Advanced Audio Codec\r\nFormat profile : LC\r\nCodec ID : 40\r\nDuration : 57mn 16s\r\nBit rate mode : Constant\r\nBit rate : 93.5 Kbps\r\nChannel(s) : 2 channels\r\nChannel positions : Front: L R\r\nSampling rate : 48.0 KHz\r\nFrame rate : 46.875 fps (1024 spf)\r\nCompression mode : Lossy\r\nStream size : 38.3 MiB (4%)","torrent":{"xt":"urn:btih:f7ccee71b8d82a8efd1137bee8044c755d915ee0","amp;dn":"The+Secret+Agent+S01E02","amp;tr":["udp%3A%2F%2Ftracker.leechers-paradise.org%3A6969","udp%3A%2F%2Fzer0day.ch%3A1337","udp%3A%2F%2Fopen.demonii.com%3A1337","udp%3A%2F%2Ftracker.coppersurfer.tk%3A6969","udp%3A%2F%2Fexodus.desync.com%3A6969"],"infoHash":"f7ccee71b8d82a8efd1137bee8044c755d915ee0","infoHashBuffer":{"type":"Buffer","data":[247,204,238,113,184,216,42,142,253,17,55,190,232,4,76,117,93,145,94,224]},"announce":[],"urlList":[]}}